<?xml version="1.0" encoding="UTF-8" standalone="no"?>
<!DOCTYPE svg PUBLIC "-//W3C//DTD SVG 1.1//EN" "http://www.w3.org/Graphics/SVG/1.1/DTD/svg11.dtd">
<svg xmlns="http://www.w3.org/2000/svg" version="1.1" viewBox="0.00 0.00 327.00 63.00">
<g stroke-width="2.00" fill="none" stroke-linecap="butt">
<path stroke="#808080" vector-effect="non-scaling-stroke" d="
  M 160.25 4.59
  A 0.34 0.34 0.0 0 0 159.91 4.25
  L 152.35 4.25
  A 0.34 0.34 0.0 0 0 152.01 4.59
  L 152.01 45.29
  A 0.34 0.34 0.0 0 0 152.35 45.63
  L 159.91 45.63
  A 0.34 0.34 0.0 0 0 160.25 45.29
  L 160.25 4.59"
/>
<path stroke="#808080" vector-effect="non-scaling-stroke" d="
  M 259.88 4.51
  A 0.27 0.27 0.0 0 0 259.61 4.24
  L 251.77 4.24
  A 0.27 0.27 0.0 0 0 251.50 4.51
  L 251.50 45.35
  A 0.27 0.27 0.0 0 0 251.77 45.62
  L 259.61 45.62
  A 0.27 0.27 0.0 0 0 259.88 45.35
  L 259.88 4.51"
/>
<path stroke="#808080" vector-effect="non-scaling-stroke" d="
  M 9.33 20.30
  Q 10.23 17.78 13.17 13.37
  A 1.10 1.05 -33.7 0 0 13.34 12.62
  Q 13.17 11.60 11.97 11.84
  A 1.10 1.07 -77.5 0 0 11.26 12.31
  Q -1.14 31.26 11.19 50.32
  Q 11.75 51.19 12.72 50.82
  Q 13.14 50.66 13.30 50.10
  A 0.84 0.83 35.6 0 0 13.18 49.41
  Q 3.75 35.90 9.33 20.30"
/>
<path stroke="#808080" vector-effect="non-scaling-stroke" d="
  M 65.03 41.42
  Q 63.77 45.07 60.85 49.66
  A 0.78 0.77 34.4 0 0 61.05 50.70
  Q 61.27 50.85 61.53 50.93
  Q 62.30 51.15 62.75 50.48
  Q 75.15 31.94 62.96 12.54
  Q 62.43 11.69 61.44 11.89
  Q 61.03 11.97 60.84 12.39
  A 1.16 1.16 0.0 0 0 60.94 13.51
  Q 70.07 26.85 65.03 41.42"
/>
<path stroke="#808080" vector-effect="non-scaling-stroke" d="
  M 14.14 22.79
  C 14.98 20.32 16.48 18.34 17.57 16.02
  A 0.48 0.48 0.0 0 0 17.39 15.41
  L 17.12 15.24
  A 1.06 1.05 -56.3 0 0 15.69 15.53
  Q 7.35 27.39 12.28 41.24
  Q 13.58 44.90 16.27 47.72
  A 0.49 0.48 -43.7 0 0 16.95 47.73
  L 17.15 47.55
  Q 17.91 46.83 17.31 45.97
  Q 9.88 35.22 14.14 22.79"
/>
<path stroke="#808080" vector-effect="non-scaling-stroke" d="
  M 57.92 44.19
  Q 57.23 45.46 56.54 46.71
  A 0.54 0.53 -57.3 0 0 56.69 47.41
  L 56.91 47.57
  Q 57.81 48.24 58.43 47.30
  Q 68.84 31.64 58.47 15.52
  A 0.90 0.90 0.0 0 0 57.91 15.13
  Q 57.09 14.95 56.75 15.53
  Q 56.31 16.29 56.80 17.01
  Q 65.61 29.99 57.92 44.19"
/>
<path stroke="#808080" vector-effect="non-scaling-stroke" d="
  M 52.90 31.44
  A 15.88 15.88 0.0 0 0 37.02 15.56
  A 15.88 15.88 0.0 0 0 21.14 31.44
  A 15.88 15.88 0.0 0 0 37.02 47.32
  A 15.88 15.88 0.0 0 0 52.90 31.44"
/>
<path stroke="#808080" vector-effect="non-scaling-stroke" d="
  M 98.92 44.39
  Q 104.55 47.68 110.80 44.60
  C 115.70 42.20 118.01 36.95 117.85 31.60
  C 117.59 22.69 110.16 16.20 101.15 18.26
  C 100.25 18.46 99.70 19.16 98.95 19.62
  Q 98.23 20.06 98.28 19.22
  L 98.31 18.74
  Q 98.35 18.14 97.75 18.13
  L 90.57 18.12
  Q 90.00 18.12 90.00 18.68
  L 90.00 58.28
  Q 90.00 58.63 90.35 58.63
  L 97.95 58.61
  Q 98.25 58.61 98.25 58.30
  L 98.25 44.77
  Q 98.25 44.00 98.92 44.39"
/>
<path stroke="#808080" vector-effect="non-scaling-stroke" d="
  M 178.51 36.98
  Q 178.62 38.04 177.81 38.47
  Q 174.00 40.50 169.42 35.91
  Q 169.19 35.69 168.96 35.91
  L 164.06 40.82
  Q 163.87 41.00 164.06 41.19
  Q 168.56 45.68 174.38 46.02
  C 180.21 46.37 187.08 42.98 185.96 36.25
  C 185.16 31.47 179.87 30.03 175.79 29.08
  Q 174.23 28.71 172.83 27.72
  Q 172.45 27.45 172.40 26.98
  Q 172.21 25.09 174.03 24.84
  Q 177.37 24.38 180.23 27.80
  Q 180.55 28.18 180.90 27.83
  L 185.59 23.17
  Q 185.93 22.83 185.59 22.49
  Q 181.03 17.85 174.73 17.76
  C 170.56 17.71 165.67 20.54 164.88 25.15
  C 163.60 32.51 171.93 34.69 177.57 35.92
  A 1.19 1.19 0.0 0 1 178.51 36.98"
/>
<path stroke="#808080" vector-effect="non-scaling-stroke" d="
  M 197.75 33.75
  L 216.46 33.75
  Q 216.93 33.75 216.95 33.28
  C 217.33 25.07 212.87 18.39 204.34 17.87
  Q 194.77 17.29 190.78 24.46
  Q 187.76 29.89 189.51 36.27
  Q 191.69 44.25 200.83 45.92
  C 203.07 46.33 205.47 46.01 207.69 45.65
  Q 211.85 44.96 214.65 41.67
  Q 215.42 40.77 214.46 40.08
  Q 212.28 38.53 210.56 36.52
  Q 209.71 35.52 209.07 36.67
  Q 208.18 38.30 206.35 38.82
  Q 199.45 40.76 197.40 34.22
  A 0.37 0.36 -8.7 0 1 197.75 33.75"
/>
<path stroke="#808080" vector-effect="non-scaling-stroke" d="
  M 229.45 44.33
  Q 234.36 47.34 239.70 45.31
  C 254.12 39.81 250.27 17.29 233.58 17.86
  Q 231.71 17.92 229.36 19.65
  Q 228.58 20.22 228.72 19.26
  L 228.80 18.75
  Q 228.89 18.11 228.25 18.11
  L 220.87 18.13
  A 0.38 0.37 -0.8 0 0 220.50 18.50
  L 220.50 58.45
  Q 220.50 58.65 220.70 58.65
  L 228.53 58.59
  Q 228.74 58.59 228.74 58.38
  L 228.75 44.72
  Q 228.75 43.90 229.45 44.33"
/>
<path stroke="#808080" vector-effect="non-scaling-stroke" d="
  M 279.88 44.58
  L 279.83 44.93
  Q 279.72 45.63 280.43 45.63
  L 287.57 45.62
  Q 288.15 45.62 288.15 45.04
  Q 288.13 35.53 288.10 26.89
  C 288.09 24.68 287.54 22.29 285.78 20.79
  C 280.10 15.94 270.64 16.93 265.40 22.51
  Q 265.18 22.75 265.46 22.92
  L 270.81 26.16
  Q 271.06 26.31 271.29 26.13
  C 273.50 24.33 278.90 23.29 279.87 27.17
  A 0.55 0.55 0.0 0 1 279.33 27.85
  Q 276.27 27.78 272.87 28.18
  C 267.37 28.84 263.33 32.48 263.41 38.32
  Q 263.46 42.42 266.48 44.22
  Q 272.80 47.98 279.25 44.16
  Q 280.01 43.71 279.88 44.58"
/>
<path stroke="#808080" vector-effect="non-scaling-stroke" d="
  M 139.31 43.94
  L 139.19 44.99
  A 0.55 0.55 0.0 0 0 139.74 45.60
  L 147.12 45.63
  Q 147.50 45.63 147.50 45.25
  L 147.50 18.44
  Q 147.50 18.12 147.19 18.12
  L 139.51 18.13
  Q 139.22 18.13 139.23 18.41
  Q 139.33 26.10 139.16 34.57
  Q 139.07 39.34 134.57 39.72
  C 131.50 39.98 129.86 38.57 129.76 35.42
  Q 129.47 26.61 129.69 18.44
  Q 129.70 18.13 129.39 18.13
  L 121.81 18.13
  Q 121.47 18.13 121.46 18.46
  Q 120.97 31.88 121.73 38.34
  Q 122.35 43.72 127.21 45.36
  Q 133.65 47.54 138.77 43.63
  Q 139.40 43.15 139.31 43.94"
/>
<path stroke="#808080" vector-effect="non-scaling-stroke" d="
  M 305.57 31.24
  L 300.38 18.58
  A 0.74 0.72 78.3 0 0 299.71 18.13
  L 292.12 18.10
  Q 291.61 18.10 291.80 18.57
  Q 296.03 28.73 301.01 40.24
  Q 301.67 41.77 301.23 43.48
  C 300.32 47.03 298.39 53.25 293.32 49.86
  Q 292.55 49.34 292.23 50.21
  L 290.53 54.88
  Q 290.18 55.83 290.97 56.48
  C 301.19 64.78 306.56 50.82 309.72 43.08
  Q 314.68 30.93 320.13 18.40
  Q 320.26 18.10 319.93 18.10
  L 311.84 18.13
  Q 311.64 18.13 311.56 18.32
  L 306.14 31.24
  Q 305.85 31.93 305.57 31.24"
/>
<path stroke="#808080" vector-effect="non-scaling-stroke" d="
  M 21.86 19.24
  A 0.48 0.47 -59.4 0 0 21.70 18.59
  L 21.33 18.37
  Q 20.62 17.94 20.12 18.60
  C 14.26 26.40 14.49 36.51 20.10 44.35
  Q 20.55 44.97 21.14 44.49
  L 21.40 44.27
  A 1.18 1.18 0.0 0 0 21.62 42.67
  C 16.47 35.32 16.89 27.78 21.86 19.24"
/>
<path stroke="#808080" vector-effect="non-scaling-stroke" d="
  M 52.36 19.87
  C 57.25 27.12 57.48 35.77 52.40 42.86
  A 0.94 0.94 0.0 0 0 52.64 44.20
  L 52.92 44.39
  A 0.78 0.77 -53.1 0 0 53.95 44.24
  Q 56.04 41.71 57.08 38.50
  Q 60.52 27.90 54.02 18.64
  A 0.87 0.86 67.6 0 0 53.19 18.29
  Q 52.70 18.36 52.43 18.68
  A 0.98 0.98 0.0 0 0 52.36 19.87"
/>
<path stroke="#808080" vector-effect="non-scaling-stroke" d="
  M 50.76 31.42
  A 13.74 13.74 0.0 0 0 37.02 17.68
  A 13.74 13.74 0.0 0 0 23.28 31.42
  A 13.74 13.74 0.0 0 0 37.02 45.16
  A 13.74 13.74 0.0 0 0 50.76 31.42"
/>
<path stroke="#808080" vector-effect="non-scaling-stroke" d="
  M 36.33 32.74
  C 32.97 31.95 27.94 32.16 28.07 36.91
  Q 28.16 40.41 31.94 40.86
  C 35.29 41.25 39.09 40.70 39.11 36.42
  Q 39.15 31.20 39.12 26.26
  Q 39.12 25.63 39.69 25.89
  Q 42.68 27.22 44.04 29.29
  Q 44.29 29.66 44.65 29.82
  Q 45.20 30.07 45.62 29.60
  A 1.19 1.17 55.2 0 0 45.83 28.38
  C 44.60 25.23 41.77 25.25 39.68 23.14
  Q 37.00 20.45 37.00 24.25
  L 37.00 32.21
  Q 37.00 32.90 36.33 32.74"
/>
<path stroke="#808080" vector-effect="non-scaling-stroke" d="
  M 103.2788 39.7999
  A 7.86 6.18 90.3 0 0 109.4999 31.9724
  A 7.86 6.18 90.3 0 0 103.3612 24.0801
  A 7.86 6.18 90.3 0 0 97.1401 31.9076
  A 7.86 6.18 90.3 0 0 103.2788 39.7999"
/>
<path stroke="#808080" vector-effect="non-scaling-stroke" d="
  M 198.00 28.50
  L 207.92 28.50
  A 0.17 0.17 0.0 0 0 208.09 28.33
  L 208.09 28.24
  A 4.82 3.62 -0.0 0 0 203.27 24.62
  L 202.65 24.62
  A 4.82 3.62 0.0 0 0 197.83 28.24
  L 197.83 28.33
  A 0.17 0.17 0.0 0 0 198.00 28.50"
/>
<path stroke="#808080" vector-effect="non-scaling-stroke" d="
  M 233.9225 39.7800
  A 7.87 6.18 90.2 0 0 240.1300 31.9316
  A 7.87 6.18 90.2 0 0 233.9775 24.0400
  A 7.87 6.18 90.2 0 0 227.7700 31.8884
  A 7.87 6.18 90.2 0 0 233.9225 39.7800"
/>
<path stroke="#808080" vector-effect="non-scaling-stroke" d="
  M 273.72 39.63
  C 277.58 40.49 280.37 38.53 279.95 34.56
  Q 279.90 34.05 279.39 34.06
  Q 276.98 34.09 274.71 34.22
  C 271.52 34.41 269.99 38.79 273.72 39.63"
/>
<path stroke="#808080" vector-effect="non-scaling-stroke" d="
  M 36.9626 36.3992
  A 1.85 1.85 0.0 0 0 35.0585 34.6049
  L 31.9599 34.6969
  A 1.85 1.85 0.0 0 0 30.1656 36.6010
  L 30.1774 37.0008
  A 1.85 1.85 0.0 0 0 32.0815 38.7951
  L 35.1801 38.7031
  A 1.85 1.85 0.0 0 0 36.9744 36.7990
  L 36.9626 36.3992"
/>
</g>
<path fill="#ffffff" d="
  M 0.00 0.00
  L 327.00 0.00
  L 327.00 63.00
  L 0.00 63.00
  L 0.00 0.00
  Z
  M 160.25 4.59
  A 0.34 0.34 0.0 0 0 159.91 4.25
  L 152.35 4.25
  A 0.34 0.34 0.0 0 0 152.01 4.59
  L 152.01 45.29
  A 0.34 0.34 0.0 0 0 152.35 45.63
  L 159.91 45.63
  A 0.34 0.34 0.0 0 0 160.25 45.29
  L 160.25 4.59
  Z
  M 259.88 4.51
  A 0.27 0.27 0.0 0 0 259.61 4.24
  L 251.77 4.24
  A 0.27 0.27 0.0 0 0 251.50 4.51
  L 251.50 45.35
  A 0.27 0.27 0.0 0 0 251.77 45.62
  L 259.61 45.62
  A 0.27 0.27 0.0 0 0 259.88 45.35
  L 259.88 4.51
  Z
  M 9.33 20.30
  Q 10.23 17.78 13.17 13.37
  A 1.10 1.05 -33.7 0 0 13.34 12.62
  Q 13.17 11.60 11.97 11.84
  A 1.10 1.07 -77.5 0 0 11.26 12.31
  Q -1.14 31.26 11.19 50.32
  Q 11.75 51.19 12.72 50.82
  Q 13.14 50.66 13.30 50.10
  A 0.84 0.83 35.6 0 0 13.18 49.41
  Q 3.75 35.90 9.33 20.30
  Z
  M 65.03 41.42
  Q 63.77 45.07 60.85 49.66
  A 0.78 0.77 34.4 0 0 61.05 50.70
  Q 61.27 50.85 61.53 50.93
  Q 62.30 51.15 62.75 50.48
  Q 75.15 31.94 62.96 12.54
  Q 62.43 11.69 61.44 11.89
  Q 61.03 11.97 60.84 12.39
  A 1.16 1.16 0.0 0 0 60.94 13.51
  Q 70.07 26.85 65.03 41.42
  Z
  M 14.14 22.79
  C 14.98 20.32 16.48 18.34 17.57 16.02
  A 0.48 0.48 0.0 0 0 17.39 15.41
  L 17.12 15.24
  A 1.06 1.05 -56.3 0 0 15.69 15.53
  Q 7.35 27.39 12.28 41.24
  Q 13.58 44.90 16.27 47.72
  A 0.49 0.48 -43.7 0 0 16.95 47.73
  L 17.15 47.55
  Q 17.91 46.83 17.31 45.97
  Q 9.88 35.22 14.14 22.79
  Z
  M 57.92 44.19
  Q 57.23 45.46 56.54 46.71
  A 0.54 0.53 -57.3 0 0 56.69 47.41
  L 56.91 47.57
  Q 57.81 48.24 58.43 47.30
  Q 68.84 31.64 58.47 15.52
  A 0.90 0.90 0.0 0 0 57.91 15.13
  Q 57.09 14.95 56.75 15.53
  Q 56.31 16.29 56.80 17.01
  Q 65.61 29.99 57.92 44.19
  Z
  M 52.90 31.44
  A 15.88 15.88 0.0 0 0 37.02 15.56
  A 15.88 15.88 0.0 0 0 21.14 31.44
  A 15.88 15.88 0.0 0 0 37.02 47.32
  A 15.88 15.88 0.0 0 0 52.90 31.44
  Z
  M 98.92 44.39
  Q 104.55 47.68 110.80 44.60
  C 115.70 42.20 118.01 36.95 117.85 31.60
  C 117.59 22.69 110.16 16.20 101.15 18.26
  C 100.25 18.46 99.70 19.16 98.95 19.62
  Q 98.23 20.06 98.28 19.22
  L 98.31 18.74
  Q 98.35 18.14 97.75 18.13
  L 90.57 18.12
  Q 90.00 18.12 90.00 18.68
  L 90.00 58.28
  Q 90.00 58.63 90.35 58.63
  L 97.95 58.61
  Q 98.25 58.61 98.25 58.30
  L 98.25 44.77
  Q 98.25 44.00 98.92 44.39
  Z
  M 178.51 36.98
  Q 178.62 38.04 177.81 38.47
  Q 174.00 40.50 169.42 35.91
  Q 169.19 35.69 168.96 35.91
  L 164.06 40.82
  Q 163.87 41.00 164.06 41.19
  Q 168.56 45.68 174.38 46.02
  C 180.21 46.37 187.08 42.98 185.96 36.25
  C 185.16 31.47 179.87 30.03 175.79 29.08
  Q 174.23 28.71 172.83 27.72
  Q 172.45 27.45 172.40 26.98
  Q 172.21 25.09 174.03 24.84
  Q 177.37 24.38 180.23 27.80
  Q 180.55 28.18 180.90 27.83
  L 185.59 23.17
  Q 185.93 22.83 185.59 22.49
  Q 181.03 17.85 174.73 17.76
  C 170.56 17.71 165.67 20.54 164.88 25.15
  C 163.60 32.51 171.93 34.69 177.57 35.92
  A 1.19 1.19 0.0 0 1 178.51 36.98
  Z
  M 197.75 33.75
  L 216.46 33.75
  Q 216.93 33.75 216.95 33.28
  C 217.33 25.07 212.87 18.39 204.34 17.87
  Q 194.77 17.29 190.78 24.46
  Q 187.76 29.89 189.51 36.27
  Q 191.69 44.25 200.83 45.92
  C 203.07 46.33 205.47 46.01 207.69 45.65
  Q 211.85 44.96 214.65 41.67
  Q 215.42 40.77 214.46 40.08
  Q 212.28 38.53 210.56 36.52
  Q 209.71 35.52 209.07 36.67
  Q 208.18 38.30 206.35 38.82
  Q 199.45 40.76 197.40 34.22
  A 0.37 0.36 -8.7 0 1 197.75 33.75
  Z
  M 229.45 44.33
  Q 234.36 47.34 239.70 45.31
  C 254.12 39.81 250.27 17.29 233.58 17.86
  Q 231.71 17.92 229.36 19.65
  Q 228.58 20.22 228.72 19.26
  L 228.80 18.75
  Q 228.89 18.11 228.25 18.11
  L 220.87 18.13
  A 0.38 0.37 -0.8 0 0 220.50 18.50
  L 220.50 58.45
  Q 220.50 58.65 220.70 58.65
  L 228.53 58.59
  Q 228.74 58.59 228.74 58.38
  L 228.75 44.72
  Q 228.75 43.90 229.45 44.33
  Z
  M 279.88 44.58
  L 279.83 44.93
  Q 279.72 45.63 280.43 45.63
  L 287.57 45.62
  Q 288.15 45.62 288.15 45.04
  Q 288.13 35.53 288.10 26.89
  C 288.09 24.68 287.54 22.29 285.78 20.79
  C 280.10 15.94 270.64 16.93 265.40 22.51
  Q 265.18 22.75 265.46 22.92
  L 270.81 26.16
  Q 271.06 26.31 271.29 26.13
  C 273.50 24.33 278.90 23.29 279.87 27.17
  A 0.55 0.55 0.0 0 1 279.33 27.85
  Q 276.27 27.78 272.87 28.18
  C 267.37 28.84 263.33 32.48 263.41 38.32
  Q 263.46 42.42 266.48 44.22
  Q 272.80 47.98 279.25 44.16
  Q 280.01 43.71 279.88 44.58
  Z
  M 139.31 43.94
  L 139.19 44.99
  A 0.55 0.55 0.0 0 0 139.74 45.60
  L 147.12 45.63
  Q 147.50 45.63 147.50 45.25
  L 147.50 18.44
  Q 147.50 18.12 147.19 18.12
  L 139.51 18.13
  Q 139.22 18.13 139.23 18.41
  Q 139.33 26.10 139.16 34.57
  Q 139.07 39.34 134.57 39.72
  C 131.50 39.98 129.86 38.57 129.76 35.42
  Q 129.47 26.61 129.69 18.44
  Q 129.70 18.13 129.39 18.13
  L 121.81 18.13
  Q 121.47 18.13 121.46 18.46
  Q 120.97 31.88 121.73 38.34
  Q 122.35 43.72 127.21 45.36
  Q 133.65 47.54 138.77 43.63
  Q 139.40 43.15 139.31 43.94
  Z
  M 305.57 31.24
  L 300.38 18.58
  A 0.74 0.72 78.3 0 0 299.71 18.13
  L 292.12 18.10
  Q 291.61 18.10 291.80 18.57
  Q 296.03 28.73 301.01 40.24
  Q 301.67 41.77 301.23 43.48
  C 300.32 47.03 298.39 53.25 293.32 49.86
  Q 292.55 49.34 292.23 50.21
  L 290.53 54.88
  Q 290.18 55.83 290.97 56.48
  C 301.19 64.78 306.56 50.82 309.72 43.08
  Q 314.68 30.93 320.13 18.40
  Q 320.26 18.10 319.93 18.10
  L 311.84 18.13
  Q 311.64 18.13 311.56 18.32
  L 306.14 31.24
  Q 305.85 31.93 305.57 31.24
  Z
  M 21.86 19.24
  A 0.48 0.47 -59.4 0 0 21.70 18.59
  L 21.33 18.37
  Q 20.62 17.94 20.12 18.60
  C 14.26 26.40 14.49 36.51 20.10 44.35
  Q 20.55 44.97 21.14 44.49
  L 21.40 44.27
  A 1.18 1.18 0.0 0 0 21.62 42.67
  C 16.47 35.32 16.89 27.78 21.86 19.24
  Z
  M 52.36 19.87
  C 57.25 27.12 57.48 35.77 52.40 42.86
  A 0.94 0.94 0.0 0 0 52.64 44.20
  L 52.92 44.39
  A 0.78 0.77 -53.1 0 0 53.95 44.24
  Q 56.04 41.71 57.08 38.50
  Q 60.52 27.90 54.02 18.64
  A 0.87 0.86 67.6 0 0 53.19 18.29
  Q 52.70 18.36 52.43 18.68
  A 0.98 0.98 0.0 0 0 52.36 19.87
  Z"
/>
<rect fill="#000000" x="152.01" y="4.25" width="8.24" height="41.38" rx="0.34"/>
<rect fill="#000000" x="251.50" y="4.24" width="8.38" height="41.38" rx="0.27"/>
<path fill="#000000" d="
  M 9.33 20.30
  Q 3.75 35.90 13.18 49.41
  A 0.84 0.83 35.6 0 1 13.30 50.10
  Q 13.14 50.66 12.72 50.82
  Q 11.75 51.19 11.19 50.32
  Q -1.14 31.26 11.26 12.31
  A 1.10 1.07 -77.5 0 1 11.97 11.84
  Q 13.17 11.60 13.34 12.62
  A 1.10 1.05 -33.7 0 1 13.17 13.37
  Q 10.23 17.78 9.33 20.30
  Z"
/>
<path fill="#000000" d="
  M 65.03 41.42
  Q 70.07 26.85 60.94 13.51
  A 1.16 1.16 0.0 0 1 60.84 12.39
  Q 61.03 11.97 61.44 11.89
  Q 62.43 11.69 62.96 12.54
  Q 75.15 31.94 62.75 50.48
  Q 62.30 51.15 61.53 50.93
  Q 61.27 50.85 61.05 50.70
  A 0.78 0.77 34.4 0 1 60.85 49.66
  Q 63.77 45.07 65.03 41.42
  Z"
/>
<path fill="#000000" d="
  M 14.14 22.79
  Q 9.88 35.22 17.31 45.97
  Q 17.91 46.83 17.15 47.55
  L 16.95 47.73
  A 0.49 0.48 -43.7 0 1 16.27 47.72
  Q 13.58 44.90 12.28 41.24
  Q 7.35 27.39 15.69 15.53
  A 1.06 1.05 -56.3 0 1 17.12 15.24
  L 17.39 15.41
  A 0.48 0.48 0.0 0 1 17.57 16.02
  C 16.48 18.34 14.98 20.32 14.14 22.79
  Z"
/>
<path fill="#000000" d="
  M 57.92 44.19
  Q 65.61 29.99 56.80 17.01
  Q 56.31 16.29 56.75 15.53
  Q 57.09 14.95 57.91 15.13
  A 0.90 0.90 0.0 0 1 58.47 15.52
  Q 68.84 31.64 58.43 47.30
  Q 57.81 48.24 56.91 47.57
  L 56.69 47.41
  A 0.54 0.53 -57.3 0 1 56.54 46.71
  Q 57.23 45.46 57.92 44.19
  Z"
/>
<path fill="#000000" d="
  M 52.90 31.44
  A 15.88 15.88 0.0 0 1 37.02 47.32
  A 15.88 15.88 0.0 0 1 21.14 31.44
  A 15.88 15.88 0.0 0 1 37.02 15.56
  A 15.88 15.88 0.0 0 1 52.90 31.44
  Z
  M 50.76 31.42
  A 13.74 13.74 0.0 0 0 37.02 17.68
  A 13.74 13.74 0.0 0 0 23.28 31.42
  A 13.74 13.74 0.0 0 0 37.02 45.16
  A 13.74 13.74 0.0 0 0 50.76 31.42
  Z"
/>
<path fill="#ffffff" d="
  M 50.76 31.42
  A 13.74 13.74 0.0 0 1 37.02 45.16
  A 13.74 13.74 0.0 0 1 23.28 31.42
  A 13.74 13.74 0.0 0 1 37.02 17.68
  A 13.74 13.74 0.0 0 1 50.76 31.42
  Z
  M 36.33 32.74
  C 32.97 31.95 27.94 32.16 28.07 36.91
  Q 28.16 40.41 31.94 40.86
  C 35.29 41.25 39.09 40.70 39.11 36.42
  Q 39.15 31.20 39.12 26.26
  Q 39.12 25.63 39.69 25.89
  Q 42.68 27.22 44.04 29.29
  Q 44.29 29.66 44.65 29.82
  Q 45.20 30.07 45.62 29.60
  A 1.19 1.17 55.2 0 0 45.83 28.38
  C 44.60 25.23 41.77 25.25 39.68 23.14
  Q 37.00 20.45 37.00 24.25
  L 37.00 32.21
  Q 37.00 32.90 36.33 32.74
  Z"
/>
<path fill="#000000" d="
  M 98.25 44.77
  L 98.25 58.30
  Q 98.25 58.61 97.95 58.61
  L 90.35 58.63
  Q 90.00 58.63 90.00 58.28
  L 90.00 18.68
  Q 90.00 18.12 90.57 18.12
  L 97.75 18.13
  Q 98.35 18.14 98.31 18.74
  L 98.28 19.22
  Q 98.23 20.06 98.95 19.62
  C 99.70 19.16 100.25 18.46 101.15 18.26
  C 110.16 16.20 117.59 22.69 117.85 31.60
  C 118.01 36.95 115.70 42.20 110.80 44.60
  Q 104.55 47.68 98.92 44.39
  Q 98.25 44.00 98.25 44.77
  Z
  M 103.2788 39.7999
  A 7.86 6.18 90.3 0 0 109.4999 31.9724
  A 7.86 6.18 90.3 0 0 103.3612 24.0801
  A 7.86 6.18 90.3 0 0 97.1401 31.9076
  A 7.86 6.18 90.3 0 0 103.2788 39.7999
  Z"
/>
<path fill="#000000" d="
  M 178.51 36.98
  A 1.19 1.19 0.0 0 0 177.57 35.92
  C 171.93 34.69 163.60 32.51 164.88 25.15
  C 165.67 20.54 170.56 17.71 174.73 17.76
  Q 181.03 17.85 185.59 22.49
  Q 185.93 22.83 185.59 23.17
  L 180.90 27.83
  Q 180.55 28.18 180.23 27.80
  Q 177.37 24.38 174.03 24.84
  Q 172.21 25.09 172.40 26.98
  Q 172.45 27.45 172.83 27.72
  Q 174.23 28.71 175.79 29.08
  C 179.87 30.03 185.16 31.47 185.96 36.25
  C 187.08 42.98 180.21 46.37 174.38 46.02
  Q 168.56 45.68 164.06 41.19
  Q 163.87 41.00 164.06 40.82
  L 168.96 35.91
  Q 169.19 35.69 169.42 35.91
  Q 174.00 40.50 177.81 38.47
  Q 178.62 38.04 178.51 36.98
  Z"
/>
<path fill="#000000" d="
  M 197.75 33.75
  A 0.37 0.36 -8.7 0 0 197.40 34.22
  Q 199.45 40.76 206.35 38.82
  Q 208.18 38.30 209.07 36.67
  Q 209.71 35.52 210.56 36.52
  Q 212.28 38.53 214.46 40.08
  Q 215.42 40.77 214.65 41.67
  Q 211.85 44.96 207.69 45.65
  C 205.47 46.01 203.07 46.33 200.83 45.92
  Q 191.69 44.25 189.51 36.27
  Q 187.76 29.89 190.78 24.46
  Q 194.77 17.29 204.34 17.87
  C 212.87 18.39 217.33 25.07 216.95 33.28
  Q 216.93 33.75 216.46 33.75
  L 197.75 33.75
  Z
  M 198.00 28.50
  L 207.92 28.50
  A 0.17 0.17 0.0 0 0 208.09 28.33
  L 208.09 28.24
  A 4.82 3.62 -0.0 0 0 203.27 24.62
  L 202.65 24.62
  A 4.82 3.62 0.0 0 0 197.83 28.24
  L 197.83 28.33
  A 0.17 0.17 0.0 0 0 198.00 28.50
  Z"
/>
<path fill="#000000" d="
  M 228.75 44.72
  L 228.74 58.38
  Q 228.74 58.59 228.53 58.59
  L 220.70 58.65
  Q 220.50 58.65 220.50 58.45
  L 220.50 18.50
  A 0.38 0.37 -0.8 0 1 220.87 18.13
  L 228.25 18.11
  Q 228.89 18.11 228.80 18.75
  L 228.72 19.26
  Q 228.58 20.22 229.36 19.65
  Q 231.71 17.92 233.58 17.86
  C 250.27 17.29 254.12 39.81 239.70 45.31
  Q 234.36 47.34 229.45 44.33
  Q 228.75 43.90 228.75 44.72
  Z
  M 233.9225 39.7800
  A 7.87 6.18 90.2 0 0 240.1300 31.9316
  A 7.87 6.18 90.2 0 0 233.9775 24.0400
  A 7.87 6.18 90.2 0 0 227.7700 31.8884
  A 7.87 6.18 90.2 0 0 233.9225 39.7800
  Z"
/>
<path fill="#000000" d="
  M 279.25 44.16
  Q 272.80 47.98 266.48 44.22
  Q 263.46 42.42 263.41 38.32
  C 263.33 32.48 267.37 28.84 272.87 28.18
  Q 276.27 27.78 279.33 27.85
  A 0.55 0.55 0.0 0 0 279.87 27.17
  C 278.90 23.29 273.50 24.33 271.29 26.13
  Q 271.06 26.31 270.81 26.16
  L 265.46 22.92
  Q 265.18 22.75 265.40 22.51
  C 270.64 16.93 280.10 15.94 285.78 20.79
  C 287.54 22.29 288.09 24.68 288.10 26.89
  Q 288.13 35.53 288.15 45.04
  Q 288.15 45.62 287.57 45.62
  L 280.43 45.63
  Q 279.72 45.63 279.83 44.93
  L 279.88 44.58
  Q 280.01 43.71 279.25 44.16
  Z
  M 273.72 39.63
  C 277.58 40.49 280.37 38.53 279.95 34.56
  Q 279.90 34.05 279.39 34.06
  Q 276.98 34.09 274.71 34.22
  C 271.52 34.41 269.99 38.79 273.72 39.63
  Z"
/>
<path fill="#000000" d="
  M 138.77 43.63
  Q 133.65 47.54 127.21 45.36
  Q 122.35 43.72 121.73 38.34
  Q 120.97 31.88 121.46 18.46
  Q 121.47 18.13 121.81 18.13
  L 129.39 18.13
  Q 129.70 18.13 129.69 18.44
  Q 129.47 26.61 129.76 35.42
  C 129.86 38.57 131.50 39.98 134.57 39.72
  Q 139.07 39.34 139.16 34.57
  Q 139.33 26.10 139.23 18.41
  Q 139.22 18.13 139.51 18.13
  L 147.19 18.12
  Q 147.50 18.12 147.50 18.44
  L 147.50 45.25
  Q 147.50 45.63 147.12 45.63
  L 139.74 45.60
  A 0.55 0.55 0.0 0 1 139.19 44.99
  L 139.31 43.94
  Q 139.40 43.15 138.77 43.63
  Z"
/>
<path fill="#000000" d="
  M 306.14 31.24
  L 311.56 18.32
  Q 311.64 18.13 311.84 18.13
  L 319.93 18.10
  Q 320.26 18.10 320.13 18.40
  Q 314.68 30.93 309.72 43.08
  C 306.56 50.82 301.19 64.78 290.97 56.48
  Q 290.18 55.83 290.53 54.88
  L 292.23 50.21
  Q 292.55 49.34 293.32 49.86
  C 298.39 53.25 300.32 47.03 301.23 43.48
  Q 301.67 41.77 301.01 40.24
  Q 296.03 28.73 291.80 18.57
  Q 291.61 18.10 292.12 18.10
  L 299.71 18.13
  A 0.74 0.72 78.3 0 1 300.38 18.58
  L 305.57 31.24
  Q 305.85 31.93 306.14 31.24
  Z"
/>
<path fill="#000000" d="
  M 21.86 19.24
  C 16.89 27.78 16.47 35.32 21.62 42.67
  A 1.18 1.18 0.0 0 1 21.40 44.27
  L 21.14 44.49
  Q 20.55 44.97 20.10 44.35
  C 14.49 36.51 14.26 26.40 20.12 18.60
  Q 20.62 17.94 21.33 18.37
  L 21.70 18.59
  A 0.48 0.47 -59.4 0 1 21.86 19.24
  Z"
/>
<path fill="#000000" d="
  M 52.40 42.86
  C 57.48 35.77 57.25 27.12 52.36 19.87
  A 0.98 0.98 0.0 0 1 52.43 18.68
  Q 52.70 18.36 53.19 18.29
  A 0.87 0.86 67.6 0 1 54.02 18.64
  Q 60.52 27.90 57.08 38.50
  Q 56.04 41.71 53.95 44.24
  A 0.78 0.77 -53.1 0 1 52.92 44.39
  L 52.64 44.20
  A 0.94 0.94 0.0 0 1 52.40 42.86
  Z"
/>
<path fill="#000000" d="
  M 37.00 32.21
  L 37.00 24.25
  Q 37.00 20.45 39.68 23.14
  C 41.77 25.25 44.60 25.23 45.83 28.38
  A 1.19 1.17 55.2 0 1 45.62 29.60
  Q 45.20 30.07 44.65 29.82
  Q 44.29 29.66 44.04 29.29
  Q 42.68 27.22 39.69 25.89
  Q 39.12 25.63 39.12 26.26
  Q 39.15 31.20 39.11 36.42
  C 39.09 40.70 35.29 41.25 31.94 40.86
  Q 28.16 40.41 28.07 36.91
  C 27.94 32.16 32.97 31.95 36.33 32.74
  Q 37.00 32.90 37.00 32.21
  Z
  M 36.9626 36.3992
  A 1.85 1.85 0.0 0 0 35.0585 34.6049
  L 31.9599 34.6969
  A 1.85 1.85 0.0 0 0 30.1656 36.6010
  L 30.1774 37.0008
  A 1.85 1.85 0.0 0 0 32.0815 38.7951
  L 35.1801 38.7031
  A 1.85 1.85 0.0 0 0 36.9744 36.7990
  L 36.9626 36.3992
  Z"
/>
<ellipse fill="#ffffff" cx="0.00" cy="0.00" transform="translate(103.32,31.94) rotate(90.3)" rx="7.86" ry="6.18"/>
<ellipse fill="#ffffff" cx="0.00" cy="0.00" transform="translate(233.95,31.91) rotate(90.2)" rx="7.87" ry="6.18"/>
<path fill="#ffffff" d="
  M 198.00 28.50
  A 0.17 0.17 0.0 0 1 197.83 28.33
  L 197.83 28.24
  A 4.82 3.62 -0.0 0 1 202.65 24.62
  L 203.27 24.62
  A 4.82 3.62 -0.0 0 1 208.09 28.24
  L 208.09 28.33
  A 0.17 0.17 0.0 0 1 207.92 28.50
  L 198.00 28.50
  Z"
/>
<path fill="#ffffff" d="
  M 273.72 39.63
  C 269.99 38.79 271.52 34.41 274.71 34.22
  Q 276.98 34.09 279.39 34.06
  Q 279.90 34.05 279.95 34.56
  C 280.37 38.53 277.58 40.49 273.72 39.63
  Z"
/>
<rect fill="#ffffff" x="-3.40" y="-2.05" transform="translate(33.57,36.70) rotate(-1.7)" width="6.80" height="4.10" rx="1.85"/>
</svg>
